<svg xmlns="http://www.w3.org/2000/svg" viewBox="0 0 424.01 510.77"><g data-name="Слой 2"><path d="M276.86 45.87l20.9-36.2a6.2 6.2 0 00.9-3.2 6.41 6.41 0 00-3.2-5.6 6.48 6.48 0 00-8.8 2.3l-21.8 37.9a157.35 157.35 0 00-106.3.5l-21.4-37.1a6.63 6.63 0 00-5.6-3.2 6.2 6.2 0 00-3.2.9 6.39 6.39 0 00-2.3 8.8l20.6 35.6C105.09 66 76.07 103.45 72.81 147.07a2.15 2.15 0 002.16 2.3H350a2.16 2.16 0 002.16-2.31c-3.43-44.06-33.04-81.83-75.3-101.19zm-122.6 63.2a12.6 12.6 0 1112.6-12.6 12.62 12.62 0 01-12.6 12.6zm114.9 0a12.6 12.6 0 1112.6-12.6 12.62 12.62 0 01-12.6 12.6zM392.11 356a31.92 31.92 0 01-31.9-31.9V189.27a31.92 31.92 0 0131.9-31.9 31.92 31.92 0 0131.9 31.9v134.8a31.92 31.92 0 01-31.9 31.93zM31.9 356A31.92 31.92 0 010 324.07v-134.8a31.92 31.92 0 0131.9-31.9 31.92 31.92 0 0131.9 31.9v134.8A31.92 31.92 0 0131.9 356zm319.81-195.8v217.07A29.68 29.68 0 01322.05 407H294.6a27.15 27.15 0 01.1 2.9V478c0 17.86-14.6 33-32.43 32.75a32.1 32.1 0 01-31.57-32.1v-68.8a28.1 28.1 0 01.1-2.9h-37.09a28.1 28.1 0 01.1 2.9v68.8a32.1 32.1 0 01-31.57 32.1c-17.84.21-32.43-14.89-32.43-32.75v-68.13a27.15 27.15 0 01.1-2.9h-27.46a29.68 29.68 0 01-29.65-29.7V160.2a2.84 2.84 0 012.83-2.83h273.25a2.85 2.85 0 012.83 2.83z" fill="#fff" data-name="Слой 1"/></g></svg>