<svg xmlns="http://www.w3.org/2000/svg" viewBox="0 0 439.15 439.15"><path d="M430.14 9v148.12l-74 3.95-82.47 4.4 50.93-50.93A148.49 148.49 0 0071 219.57q0 4 .21 7.92L9 230.81l-8.7.46c-.2-3.87-.3-7.78-.3-11.7a220.86 220.86 0 013.58-39.69A217.32 217.32 0 019 157.12C35.91 66.27 120 0 219.58 0a218.92 218.92 0 01155.26 64.31zm9.01 210.57a220.86 220.86 0 01-3.58 39.69 217.32 217.32 0 01-5.43 22.74c-26.9 90.86-111 157.13-210.56 157.13a218.92 218.92 0 01-155.27-64.29L9 430.14V282l74-3.95 82.47-4.4-50.92 50.95a148.49 148.49 0 00253.57-105q0-4-.21-7.92l62.23-3.32 8.7-.46c.21 3.84.31 7.75.31 11.67z"/></svg>