<svg xmlns="http://www.w3.org/2000/svg" viewBox="0 0 424.01 510.77">
	<defs>
		<style>.b3fc020e-1337-4888-9ddc-c07bb6497126{fill:#fff;}</style>
	</defs>
	<g id="e91d1bde-cc36-4fb7-a0cc-88bb2db64341" data-name="Слой 2">
		<g id="f9ce6506-5a16-472d-92fd-baae2a92d6a5" data-name="Слой 1">
			<path class="b3fc020e-1337-4888-9ddc-c07bb6497126" d="M276.86,45.87l20.9-36.2a6.2,6.2,0,0,0,.9-3.2,6.41,6.41,0,0,0-3.2-5.6,6.48,6.48,0,0,0-8.8,2.3l-21.8,37.9a157.35,157.35,0,0,0-106.3.5l-21.4-37.1a6.63,6.63,0,0,0-5.6-3.2,6.2,6.2,0,0,0-3.2.9,6.39,6.39,0,0,0-2.3,8.8l20.6,35.6C105.09,66,76.07,103.45,72.81,147.07a2.15,2.15,0,0,0,2.16,2.3H350a2.16,2.16,0,0,0,2.16-2.31C348.73,103,319.12,65.23,276.86,45.87Zm-122.6,63.2a12.6,12.6,0,1,1,12.6-12.6A12.62,12.62,0,0,1,154.26,109.07Zm114.9,0a12.6,12.6,0,1,1,12.6-12.6A12.62,12.62,0,0,1,269.16,109.07Z"/>
			<path class="b3fc020e-1337-4888-9ddc-c07bb6497126" d="M392.11,356h0a31.92,31.92,0,0,1-31.9-31.9V189.27a31.92,31.92,0,0,1,31.9-31.9h0a31.92,31.92,0,0,1,31.9,31.9v134.8A31.92,31.92,0,0,1,392.11,356Z"/>
			<path class="b3fc020e-1337-4888-9ddc-c07bb6497126" d="M31.9,356h0A31.92,31.92,0,0,1,0,324.07V189.27a31.92,31.92,0,0,1,31.9-31.9h0a31.92,31.92,0,0,1,31.9,31.9v134.8A31.92,31.92,0,0,1,31.9,356Z"/>
			<path class="b3fc020e-1337-4888-9ddc-c07bb6497126" d="M351.71,160.2V377.27A29.68,29.68,0,0,1,322.05,407H294.6a27.15,27.15,0,0,1,.1,2.9V478c0,17.86-14.6,33-32.43,32.75a32.1,32.1,0,0,1-31.57-32.1v-68.8a28.1,28.1,0,0,1,.1-2.9H193.71a28.1,28.1,0,0,1,.1,2.9v68.8a32.1,32.1,0,0,1-31.57,32.1c-17.84.21-32.43-14.89-32.43-32.75V409.87a27.15,27.15,0,0,1,.1-2.9H102.45a29.68,29.68,0,0,1-29.65-29.7V160.2a2.84,2.84,0,0,1,2.83-2.83H348.88A2.85,2.85,0,0,1,351.71,160.2Z"/>
		</g>
	</g>
</svg>