<svg xmlns="http://www.w3.org/2000/svg" viewBox="0 0 439.15 439.15">
	<g>
		<g>
			<path d="M430.14,9V157.12l-74,3.95-82.47,4.4,50.93-50.93A148.49,148.49,0,0,0,71,219.57q0,4,.21,7.92L9,230.81l-8.7.46C.1,227.4,0,223.49,0,219.57a220.86,220.86,0,0,1,3.58-39.69A217.32,217.32,0,0,1,9,157.12C35.91,66.27,120,0,219.58,0A218.92,218.92,0,0,1,374.84,64.31Z"/>
			<path d="M439.15,219.57a220.86,220.86,0,0,1-3.58,39.69A217.32,217.32,0,0,1,430.14,282c-26.9,90.86-111,157.13-210.56,157.13A218.92,218.92,0,0,1,64.31,374.84L9,430.14V282l74-3.95,82.47-4.4L114.55,324.6a148.49,148.49,0,0,0,253.57-105q0-4-.21-7.92l62.23-3.32,8.7-.46C439.05,211.74,439.15,215.65,439.15,219.57Z"/>
		</g>
	</g>
</svg>